<svg width="32" height="32" viewBox="0 0 32 32" fill="none" xmlns="http://www.w3.org/2000/svg">
<path d="M29.3334 29.3333H2.66675C2.12008 29.3333 1.66675 28.88 1.66675 28.3333C1.66675 27.7866 2.12008 27.3333 2.66675 27.3333H29.3334C29.8801 27.3333 30.3334 27.7866 30.3334 28.3333C30.3334 28.88 29.8801 29.3333 29.3334 29.3333Z" fill="#9F9F9F"/>
<path d="M13 5.33335V29.3334H19V5.33335C19 3.86669 18.4 2.66669 16.6 2.66669H15.4C13.6 2.66669 13 3.86669 13 5.33335Z" fill="#9F9F9F"/>
<path d="M4 13.3334V29.3334H9.33333V13.3334C9.33333 11.8667 8.8 10.6667 7.2 10.6667H6.13333C4.53333 10.6667 4 11.8667 4 13.3334Z" fill="#9F9F9F"/>
<path d="M22.6667 20V29.3333H28.0001V20C28.0001 18.5333 27.4667 17.3333 25.8667 17.3333H24.8001C23.2001 17.3333 22.6667 18.5333 22.6667 20Z" fill="#9F9F9F"/>
</svg>
