<svg width="32" height="32" viewBox="0 0 32 32" fill="none" xmlns="http://www.w3.org/2000/svg">
<path d="M26.6667 6.66669C27.0203 6.66669 27.3594 6.80716 27.6095 7.05721C27.8595 7.30726 28 7.6464 28 8.00002C28 8.35364 27.8595 8.69278 27.6095 8.94283C27.3594 9.19288 27.0203 9.33335 26.6667 9.33335H25.3333L25.3293 9.42802L24.0853 26.856C24.0374 27.5288 23.7364 28.1584 23.2428 28.6181C22.7492 29.0778 22.0998 29.3334 21.4253 29.3334H10.5733C9.89885 29.3334 9.24942 29.0778 8.75585 28.6181C8.26227 28.1584 7.96122 27.5288 7.91333 26.856L6.66933 9.42935L6.66667 9.33335H5.33333C4.97971 9.33335 4.64057 9.19288 4.39052 8.94283C4.14048 8.69278 4 8.35364 4 8.00002C4 7.6464 4.14048 7.30726 4.39052 7.05721C4.64057 6.80716 4.97971 6.66669 5.33333 6.66669H26.6667ZM18.6667 2.66669C19.0203 2.66669 19.3594 2.80716 19.6095 3.05721C19.8595 3.30726 20 3.6464 20 4.00002C20 4.35364 19.8595 4.69278 19.6095 4.94283C19.3594 5.19288 19.0203 5.33335 18.6667 5.33335H13.3333C12.9797 5.33335 12.6406 5.19288 12.3905 4.94283C12.1405 4.69278 12 4.35364 12 4.00002C12 3.6464 12.1405 3.30726 12.3905 3.05721C12.6406 2.80716 12.9797 2.66669 13.3333 2.66669H18.6667Z" fill="#78AEFF"/>
</svg>
