<svg width="28" height="28" viewBox="0 0 28 28" fill="none" xmlns="http://www.w3.org/2000/svg">
<path d="M24.7916 10.675C22.0966 6.44001 18.1533 4.00168 14 4.00168C11.9233 4.00168 9.90498 4.60835 8.06165 5.74001C6.21831 6.88335 4.56165 8.55168 3.20831 10.675C2.04165 12.5067 2.04165 15.4817 3.20831 17.3133C5.90331 21.56 9.84665 23.9867 14 23.9867C16.0766 23.9867 18.095 23.38 19.9383 22.2483C21.7816 21.105 23.4383 19.4367 24.7916 17.3133C25.9583 15.4933 25.9583 12.5067 24.7916 10.675ZM14 18.7133C11.3866 18.7133 9.28665 16.6017 9.28665 14C9.28665 11.3983 11.3866 9.28668 14 9.28668C16.6133 9.28668 18.7133 11.3983 18.7133 14C18.7133 16.6017 16.6133 18.7133 14 18.7133Z" fill="#383838"/>
<path d="M14 10.6633C12.1683 10.6633 10.675 12.1567 10.675 14C10.675 15.8317 12.1683 17.325 14 17.325C15.8317 17.325 17.3367 15.8317 17.3367 14C17.3367 12.1683 15.8317 10.6633 14 10.6633Z" fill="#383838"/>
</svg>
