<svg width="157" height="157" viewBox="0 0 157 157" fill="none" xmlns="http://www.w3.org/2000/svg">
<path d="M109.9 13.0833H92.8917C71.9583 13.0833 58.875 26.1667 58.875 47.1V73.5938H99.7604C102.442 73.5938 104.667 75.8179 104.667 78.5C104.667 81.1821 102.442 83.4063 99.7604 83.4063H58.875V109.9C58.875 130.833 71.9583 143.917 92.8917 143.917H109.835C130.768 143.917 143.851 130.833 143.851 109.9V47.1C143.917 26.1667 130.833 13.0833 109.9 13.0833Z" fill="#78AEFF"/>
<path d="M29.8299 73.5938L43.3712 60.0525C44.3524 59.0713 44.8103 57.8283 44.8103 56.5854C44.8103 55.3425 44.3524 54.0342 43.3712 53.1183C41.4741 51.2213 38.3341 51.2213 36.437 53.1183L14.5224 75.0329C12.6253 76.93 12.6253 80.07 14.5224 81.9671L36.437 103.882C38.3341 105.779 41.4741 105.779 43.3712 103.882C45.2683 101.985 45.2683 98.8446 43.3712 96.9475L29.8299 83.4063H58.8749V73.5938H29.8299V73.5938Z" fill="#78AEFF"/>
</svg>
