<svg width="32" height="32" viewBox="0 0 32 32" fill="none" xmlns="http://www.w3.org/2000/svg">
<path d="M24 5.33332H21V3.66666C21 3.11999 20.5467 2.66666 20 2.66666C19.4533 2.66666 19 3.11999 19 3.66666V28.3333C19 28.88 19.4533 29.3333 20 29.3333C20.5467 29.3333 21 28.88 21 28.3333V26.6667H24C26.9467 26.6667 29.3333 24.28 29.3333 21.3333V10.6667C29.3333 7.71999 26.9467 5.33332 24 5.33332Z" fill="#78AEFF"/>
<path d="M8.66668 5.33334C5.72001 5.33334 3.33334 7.72001 3.33334 10.6667V21.3333C3.33334 24.28 5.72001 26.6667 8.66668 26.6667H15.3333C16.0667 26.6667 16.6667 26.0667 16.6667 25.3333V6.66668C16.6667 5.93334 16.0667 5.33334 15.3333 5.33334H8.66668ZM8.89334 16.5067C8.82668 16.6667 8.73334 16.8133 8.61334 16.9467C8.48001 17.0667 8.33334 17.16 8.17334 17.2267C8.01334 17.2933 7.84001 17.3333 7.66668 17.3333C7.49334 17.3333 7.32001 17.2933 7.16001 17.2267C7.00001 17.16 6.85334 17.0667 6.72001 16.9467C6.60001 16.8133 6.50668 16.6667 6.42668 16.5067C6.36001 16.3467 6.33334 16.1733 6.33334 16C6.33334 15.6533 6.48001 15.3067 6.72001 15.0533C6.78668 15 6.85334 14.9467 6.92001 14.8933C7.00001 14.84 7.08001 14.8 7.16001 14.7733C7.24001 14.7333 7.32001 14.7067 7.40001 14.6933C7.85334 14.6 8.30668 14.7467 8.61334 15.0533C8.85334 15.3067 9.00001 15.6533 9.00001 16C9.00001 16.1733 8.96001 16.3467 8.89334 16.5067ZM13.56 16.5067C13.4933 16.6667 13.4 16.8133 13.28 16.9467C13.1467 17.0667 13 17.16 12.84 17.2267C12.68 17.2933 12.5067 17.3333 12.3333 17.3333C12.16 17.3333 11.9867 17.2933 11.8267 17.2267C11.6667 17.16 11.52 17.0667 11.3867 16.9467C11.1333 16.6933 11 16.36 11 16C11 15.8267 11.04 15.6533 11.1067 15.4933C11.1733 15.32 11.2667 15.1867 11.3867 15.0533C11.88 14.56 12.7733 14.56 13.28 15.0533C13.52 15.3067 13.6667 15.6533 13.6667 16C13.6667 16.1733 13.6267 16.3467 13.56 16.5067Z" fill="#78AEFF"/>
</svg>
