<svg width="32" height="32" viewBox="0 0 32 32" fill="none" xmlns="http://www.w3.org/2000/svg">
<path d="M25.2534 7.22665L18.3601 3.23998C17.0401 2.47998 14.9734 2.47998 13.6534 3.23998L6.69344 7.25332C3.93344 9.11998 3.77344 9.39998 3.77344 12.3733V19.6133C3.77344 22.5866 3.93344 22.88 6.74677 24.7733L13.6401 28.76C14.3068 29.1466 15.1601 29.3333 16.0001 29.3333C16.8401 29.3333 17.6934 29.1466 18.3468 28.76L25.3068 24.7466C28.0668 22.88 28.2268 22.6 28.2268 19.6266V12.3733C28.2268 9.39998 28.0668 9.11998 25.2534 7.22665ZM16.0001 20.3333C13.6134 20.3333 11.6668 18.3866 11.6668 16C11.6668 13.6133 13.6134 11.6666 16.0001 11.6666C18.3868 11.6666 20.3334 13.6133 20.3334 16C20.3334 18.3866 18.3868 20.3333 16.0001 20.3333Z" fill="#A3A3A3"/>
</svg>
