<svg width="32" height="32" viewBox="0 0 32 32" fill="none" xmlns="http://www.w3.org/2000/svg">
<path d="M21.3333 2.66666H10.6667C6.66667 2.66666 4 5.33332 4 9.33332V22.6667C4 26.6667 6.66667 29.3333 10.6667 29.3333H21.3333C25.3333 29.3333 28 26.6667 28 22.6667V9.33332C28 5.33332 25.3333 2.66666 21.3333 2.66666ZM23.4267 11.3067L20.52 15.9733C20.44 16.0933 20.3067 16.1867 20.1733 16.2C20.1467 16.2 20.12 16.2 20.1067 16.2C19.9867 16.2 19.8667 16.16 19.7733 16.08C17.6267 14.1733 14.4 14.1733 12.2533 16.08C12.1467 16.1733 12 16.2267 11.8533 16.2C11.7067 16.1733 11.5733 16.0933 11.5067 15.9733L8.6 11.3067C8.44 11.1067 8.48 10.84 8.66667 10.6667C12.84 6.94666 19.1467 6.94666 23.3333 10.6667C23.52 10.84 23.56 11.1067 23.4267 11.3067Z" fill="#78AEFF"/>
</svg>
